<svg xmlns="http://www.w3.org/2000/svg"  viewBox="0 0 32 32" width="100px" height="100px" fill-rule="evenodd" clip-rule="evenodd" baseProfile="basic"><path fill="#91c14b" fill-rule="evenodd" d="M8.003,14.003h-3v2h-2v4	h2v2h2v2h4v2h2v2h6v-2h2v-2h4v-2h2v-2h2v-4h-2v-2h-3l-1-1h-14L8.003,14.003z" clip-rule="evenodd"/><path fill="#91c14b" fill-rule="evenodd" d="M12.003,11.003l-3-3v-2	h2v-2h10v2h2v2l-3,3H12.003z" clip-rule="evenodd"/><path fill="#e41e2f" fill-rule="evenodd" d="M21.003,16.003h4v-6h-2	l-3,3v2L21.003,16.003z" clip-rule="evenodd"/><path fill="#e41e2f" fill-rule="evenodd" d="M9.003,10.003v-2h4v2h6	v-2h4v2l-3,3h-8L9.003,10.003z" clip-rule="evenodd"/><path fill="#e6e5e5" fill-rule="evenodd" d="M19.001,10.003v3.999	h4.001v-3.999H19.001z" clip-rule="evenodd"/><path fill="#e41e2f" fill-rule="evenodd" d="M11.003,16.003h-4v-6h2	l3,3v2L11.003,16.003z" clip-rule="evenodd"/><path fill="#e6e5e5" fill-rule="evenodd" d="M9.001,10.004v3.999	h4.001v-3.999H9.001z" clip-rule="evenodd"/><path fill="#00953f" fill-rule="evenodd" d="M13.001,20.004v1.999	h10.001v-1.999H13.001z" clip-rule="evenodd"/><path fill="#064678" fill-rule="evenodd" d="M11.003,14.003v-2h2l1,1	l-2,2L11.003,14.003z" clip-rule="evenodd"/><path fill="#064678" fill-rule="evenodd" d="M19.003,12.003h2v2l-1,1	l-2-2L19.003,12.003z" clip-rule="evenodd"/><path fill="#00953f" fill-rule="evenodd" d="M13.001,12.004v1.999	h6.001v-1.999H13.001z" clip-rule="evenodd"/><path fill="#00953f" fill-rule="evenodd" d="M11.001,14.003v2.001	h2.001v-2.001H11.001z" clip-rule="evenodd"/><path fill="#00953f" fill-rule="evenodd" d="M19.003,14.003v2.001	h1.999v-2.001H19.003z" clip-rule="evenodd"/><path fill="#e41e2f" fill-rule="evenodd" d="M25.003,4.003h2v4h2v2	h-4V4.003z" clip-rule="evenodd"/></svg>